<svg xmlns="http://www.w3.org/2000/svg" viewBox="0 0 40 40"><path d="M25.35 3.14a6.1 6.1 0 0 0-8.44 1.78l-3.05 4.52a1 1 0 0 0 1.66 1.12L18.57 6a4.11 4.11 0 0 1 5.66-1.24 4.11 4.11 0 0 1 1 5.72l-5.38 8a2.76 2.76 0 0 1-2 1.22l-2.65.3 3.71-5.5a1 1 0 0 0-.27-1.38 1 1 0 0 0-1.39.27l-3.71 5.5-.74-2.51a2.78 2.78 0 0 1 .38-2.38 1 1 0 0 0-.27-1.39 1 1 0 0 0-1.38.27 4.75 4.75 0 0 0-.65 4l.74 2.51a3.41 3.41 0 0 0 .69 1.27l-5.13 7.6a1 1 0 0 0 .27 1.39 1.07 1.07 0 0 0 .56.17 1 1 0 0 0 .83-.44L14 21.81a3.59 3.59 0 0 0 1 .19 2.17 2.17 0 0 0 .36 0l2.6-.25a4.77 4.77 0 0 0 3.47-2.1l5.39-8a6.11 6.11 0 0 0-1.47-8.51z"/></svg>